<svg xmlns="http://www.w3.org/2000/svg" version="1.1" viewBox="0 0 45 45"><g fill="0" fill-rule="evenodd" stroke="#000" stroke-linecap="round" stroke-linejoin="round" stroke-width="1.5"><path stroke-linecap="butt" d="m9 39h27v-3h-27v3z"/><path stroke-linecap="butt" d="m12.5 32 1.5-2.5h17l1.5 2.5h-20z"/><path stroke-linecap="butt" d="m12 36v-4h21v4h-21z"/><path stroke-linecap="butt" stroke-linejoin="miter" d="m14 29.5v-13h17v13h-17z"/><path stroke-linecap="butt" d="m14 16.5-3-2.5h23l-3 2.5h-17z"/><path stroke-linecap="butt" d="m11 14v-5h4v2h5v-2h5v2h5v-2h4v5h-23z"/><path fill="none" stroke="#fff" stroke-linejoin="miter" stroke-width="1" d="m12 35.5h21"/><path fill="none" stroke="#fff" stroke-linejoin="miter" stroke-width="1" d="m13 31.5h19"/><path fill="none" stroke="#fff" stroke-linejoin="miter" stroke-width="1" d="m14 29.5h17"/><path fill="none" stroke="#fff" stroke-linejoin="miter" stroke-width="1" d="m14 16.5h17"/><path fill="none" stroke="#fff" stroke-linejoin="miter" stroke-width="1" d="m11 14h23"/></g></svg>